<svg width="32" height="32" viewBox="0 0 32 32" fill="none" xmlns="http://www.w3.org/2000/svg">
  <!-- خلفية دائرية بتدرج جميل -->
  <circle cx="16" cy="16" r="16" fill="url(#gradient)"/>
  
  <!-- أيقونة كعكة عيد الميلاد محسّنة -->
  <path d="M7 20h18v6c0 1.1-.9 2-2 2H9c-1.1 0-2-.9-2-2v-6z" fill="#FFF" stroke="#E5E7EB" stroke-width="0.5"/>
  <path d="M7 18h18v2H7v-2z" fill="#FFB6C1"/>
  <path d="M7 16h18v2H7v-2z" fill="#FFF"/>
  <path d="M7 14h18v2H7v-2z" fill="#FFE4E1"/>
  
  <!-- شموع محسّنة -->
  <rect x="10.5" y="11" width="2" height="5" fill="#FFD700" rx="0.5"/>
  <rect x="15" y="9" width="2" height="7" fill="#FFD700" rx="0.5"/>
  <rect x="19.5" y="11" width="2" height="5" fill="#FFD700" rx="0.5"/>
  
  <!-- لهب الشموع محسّن -->
  <ellipse cx="11.5" cy="10.5" rx="1" ry="1.5" fill="#FF6B35"/>
  <ellipse cx="16" cy="8.5" rx="1" ry="1.5" fill="#FF6B35"/>
  <ellipse cx="20.5" cy="10.5" rx="1" ry="1.5" fill="#FF6B35"/>
  
  <!-- نجوم وزينة -->
  <path d="M5 7l1 2 2-1-2 1 1 2-1-2-2 1 2-1-1-2z" fill="#FFD700" opacity="0.9"/>
  <path d="M26 5l0.7 1.4 1.4-0.7-1.4 0.7 0.7 1.4-0.7-1.4-1.4 0.7 1.4-0.7-0.7-1.4z" fill="#FFD700" opacity="0.9"/>
  <circle cx="4" cy="12" r="1" fill="#FFD700" opacity="0.6"/>
  <circle cx="28" cy="10" r="0.8" fill="#FFD700" opacity="0.6"/>
  
  <!-- حرف م عربي مميز -->
  <text x="16" y="25" text-anchor="middle" fill="#667eea" font-family="Arial" font-size="8" font-weight="bold">م</text>
  
  <!-- تدرج الألوان -->
  <defs>
    <linearGradient id="gradient" x1="0%" y1="0%" x2="100%" y2="100%">
      <stop offset="0%" style="stop-color:#667eea;stop-opacity:1" />
      <stop offset="50%" style="stop-color:#764ba2;stop-opacity:1" />
      <stop offset="100%" style="stop-color:#f093fb;stop-opacity:1" />
    </linearGradient>
  </defs>
</svg>