<svg width="512" height="512" viewBox="0 0 512 512" fill="none" xmlns="http://www.w3.org/2000/svg">
  <!-- خلفية دائرية بتدرج جميل -->
  <circle cx="256" cy="256" r="256" fill="url(#gradient)"/>
  
  <!-- أيقونة كعكة عيد الميلاد -->
  <path d="M120 320h272v96c0 17.6-14.4 32-32 32H152c-17.6 0-32-14.4-32-32v-96z" fill="#FFF" stroke="#E5E7EB" stroke-width="4"/>
  <path d="M120 288h272v32H120v-32z" fill="#FFB6C1"/>
  <path d="M120 256h272v32H120v-32z" fill="#FFF"/>
  <path d="M120 224h272v32H120v-32z" fill="#FFE4E1"/>
  
  <!-- شموع -->
  <rect x="168" y="176" width="32" height="80" fill="#FFD700" rx="8"/>
  <rect x="240" y="144" width="32" height="112" fill="#FFD700" rx="8"/>
  <rect x="312" y="176" width="32" height="80" fill="#FFD700" rx="8"/>
  
  <!-- لهب الشموع -->
  <ellipse cx="184" cy="168" rx="16" ry="24" fill="#FF6B35"/>
  <ellipse cx="256" cy="136" rx="16" ry="24" fill="#FF6B35"/>
  <ellipse cx="328" cy="168" rx="16" ry="24" fill="#FF6B35"/>
  
  <!-- نجوم وزينة -->
  <path d="M80 112l16 32 32-16-32 16 16 32-16-32-32 16 32-16-16-32z" fill="#FFD700" opacity="0.9"/>
  <path d="M416 80l11.2 22.4 22.4-11.2-22.4 11.2 11.2 22.4-11.2-22.4-22.4 11.2 22.4-11.2-11.2-22.4z" fill="#FFD700" opacity="0.9"/>
  <circle cx="64" cy="192" r="16" fill="#FFD700" opacity="0.6"/>
  <circle cx="448" cy="160" r="12" fill="#FFD700" opacity="0.6"/>
  
  <!-- نص ميلادك -->
  <text x="256" y="400" text-anchor="middle" fill="#667eea" font-family="Arial" font-size="64" font-weight="bold">ميلادك</text>
  
  <!-- تدرج الألوان -->
  <defs>
    <linearGradient id="gradient" x1="0%" y1="0%" x2="100%" y2="100%">
      <stop offset="0%" style="stop-color:#667eea;stop-opacity:1" />
      <stop offset="50%" style="stop-color:#764ba2;stop-opacity:1" />
      <stop offset="100%" style="stop-color:#f093fb;stop-opacity:1" />
    </linearGradient>
  </defs>
</svg>